<svg width="34" height="34" viewBox="0 0 34 34" fill="none" xmlns="http://www.w3.org/2000/svg">
<g clip-path="url(#clip0_24_1153)">
<path d="M31.7759 15.0025L19.0117 2.23835C17.9492 1.17585 16.0792 1.16169 15.0026 2.23835L2.25258 14.9884C1.14758 16.0934 1.14758 17.8784 2.25258 18.9834L15.0026 31.7334C15.5551 32.2859 16.2776 32.555 17.0001 32.555C17.7226 32.555 18.4451 32.2859 18.9976 31.7334L31.7334 18.9975C32.8526 17.9209 32.8667 16.1359 31.7759 15.0025ZM17.0142 29.7359L4.26424 16.9859L17.0142 4.23585L29.7642 16.9859L17.0142 29.7359ZM11.3334 15.5834V21.25H14.1667V17H19.8334V20.5417L24.7917 15.5834L19.8334 10.625C19.8334 12.0081 19.8334 12.7836 19.8334 14.1667H12.7501C11.9709 14.1667 11.3334 14.8042 11.3334 15.5834Z" fill="white"/>
</g>
<defs>
<clipPath id="clip0_24_1153">
<rect width="34" height="34" fill="white"/>
</clipPath>
</defs>
</svg>
